{
  "source": "C:\\Users\\Peter\\Desktop\\stuff\\MIUN\\quantitative_research\\video_compression\\videos\\BVI-HD\\BVI-HD_CDVL_videos\\ORIG\\Bookcase_1920x1080_60fps.mp4",
  "output": "C:\\Users\\Peter\\Desktop\\stuff\\MIUN\\quantitative_research\\video_compression\\compressed_videos\\BVI-HD\\vp9\\1\\Bookcase_1920x1080_60fps_vp9.webm",
  "codec": "vp9",
  "ok": "Input #0, mov,mp4,m4a,3gp,3g2,mj2, from 'C:\\Users\\Peter\\Desktop\\stuff\\MIUN\\quantitative_research\\video_compression\\videos\\BVI-HD\\BVI-HD_CDVL_videos\\ORIG\\Bookcase_1920x1080_60fps.mp4':\n  Metadata:\n    major_brand     : isom\n    minor_version   : 512\n    compatible_brands: isomiso2avc1mp41\n    encoder         : Lavf54.28.101\n  Duration: 00:00:05.00, start: 0.000000, bitrate: 336321 kb/s\n  Stream #0:0[0x1](und): Video: h264 (High 4:4:4 Predictive) (avc1 / 0x31637661), yuv420p(progressive), 1920x1080, 336316 kb/s, 60 fps, 60 tbr, 60 tbn (default)\n    Metadata:\n      handler_name    : VideoHandler\n      vendor_id       : [0][0][0][0]\n[out#0/webm @ 00000195af891580] Codec AVOption b:a (set bitrate (in bits/s)) has not been used for any stream. The most likely reason is either wrong type (e.g. a video option with no video streams) or that it is a private option of some decoder which was not actually used for any stream.\nStream mapping:\n  Stream #0:0 -> #0:0 (h264 (native) -> vp9 (libvpx-vp9))\nPress [q] to stop, [?] for help\n[libvpx-vp9 @ 00000195b14905c0] v1.15.2-100-g40561f514\nOutput #0, webm, to 'C:\\Users\\Peter\\Desktop\\stuff\\MIUN\\quantitative_research\\video_compression\\compressed_videos\\BVI-HD\\vp9\\1\\Bookcase_1920x1080_60fps_vp9.webm':\n  Metadata:\n    major_brand     : isom\n    minor_version   : 512\n    compatible_brands: isomiso2avc1mp41\n    encoder         : Lavf62.3.100\n  Stream #0:0(und): Video: vp9, yuv420p(tv, progressive), 1920x1080, q=2-31, 1000 kb/s, 60 fps, 1k tbn (default)\n    Metadata:\n      encoder         : Lavc62.11.100 libvpx-vp9\n      handler_name    : VideoHandler\n      vendor_id       : [0][0][0][0]\n    Side data:\n      cpb: bitrate max/min/avg: 0/0/0 buffer size: 1000000 vbv_delay: N/A\nframe=    0 fps=0.0 q=0.0 size=       0KiB time=N/A bitrate=N/A speed=N/A elapsed=0:00:00.54    \nframe=    8 fps=7.2 q=50.0 size=       1KiB time=00:00:00.13 bitrate=  38.0kbits/s speed=0.121x elapsed=0:00:01.10    \nframe=   15 fps=9.2 q=45.0 size=       1KiB time=00:00:00.25 bitrate=  20.3kbits/s speed=0.154x elapsed=0:00:01.62    \nframe=   23 fps= 11 q=47.0 size=       1KiB time=00:00:00.38 bitrate=  13.2kbits/s speed=0.179x elapsed=0:00:02.14    \nframe=   30 fps= 11 q=48.0 size=       1KiB time=00:00:00.50 bitrate=  10.1kbits/s speed=0.187x elapsed=0:00:02.68    \nframe=   38 fps= 12 q=49.0 size=       1KiB time=00:00:00.63 bitrate=   8.0kbits/s speed=0.196x elapsed=0:00:03.23    \nframe=   47 fps= 13 q=45.0 size=       1KiB time=00:00:00.76 bitrate=   6.6kbits/s speed=0.204x elapsed=0:00:03.75    \nframe=   54 fps= 13 q=40.0 size=       1KiB time=00:00:00.90 bitrate=   5.6kbits/s speed=0.209x elapsed=0:00:04.31    \nframe=   61 fps= 13 q=38.0 size=       1KiB time=00:00:01.01 bitrate=   5.0kbits/s speed=0.21x elapsed=0:00:04.84    \nframe=   68 fps= 13 q=44.0 size=       1KiB time=00:00:01.13 bitrate=   4.5kbits/s speed=0.211x elapsed=0:00:05.36    \nframe=   74 fps= 13 q=44.0 size=       1KiB time=00:00:01.23 bitrate=   4.1kbits/s speed=0.21x elapsed=0:00:05.87    \nframe=   82 fps= 13 q=46.0 size=       1KiB time=00:00:01.36 bitrate=   3.7kbits/s speed=0.213x elapsed=0:00:06.40    \nframe=   88 fps= 13 q=41.0 size=       1KiB time=00:00:01.46 bitrate=   3.5kbits/s speed=0.211x elapsed=0:00:06.95    \nframe=   95 fps= 13 q=43.0 size=       1KiB time=00:00:01.58 bitrate=   3.2kbits/s speed=0.212x elapsed=0:00:07.47    \nframe=  101 fps= 13 q=39.0 size=       1KiB time=00:00:01.66 bitrate=   3.0kbits/s speed=0.208x elapsed=0:00:07.99    \nframe=  107 fps= 13 q=44.0 size=       1KiB time=00:00:01.78 bitrate=   2.8kbits/s speed=0.209x elapsed=0:00:08.52    \nframe=  112 fps= 12 q=40.0 size=       1KiB time=00:00:01.86 bitrate=   2.7kbits/s speed=0.206x elapsed=0:00:09.07    \nframe=  118 fps= 12 q=49.0 size=       1KiB time=00:00:01.96 bitrate=   2.6kbits/s speed=0.205x elapsed=0:00:09.58    \nframe=  123 fps= 12 q=41.0 size=       1KiB time=00:00:02.05 bitrate=   2.5kbits/s speed=0.202x elapsed=0:00:10.13    \nframe=  128 fps= 12 q=38.0 size=       1KiB time=00:00:02.13 bitrate=   2.4kbits/s speed= 0.2x elapsed=0:00:10.65    \nframe=  133 fps= 12 q=37.0 size=     256KiB time=00:00:02.21 bitrate= 946.1kbits/s speed=0.198x elapsed=0:00:11.19    \nframe=  139 fps= 12 q=42.0 size=     256KiB time=00:00:02.31 bitrate= 905.2kbits/s speed=0.198x elapsed=0:00:11.71    \nframe=  146 fps= 12 q=40.0 size=     256KiB time=00:00:02.43 bitrate= 861.8kbits/s speed=0.199x elapsed=0:00:12.25    \nframe=  153 fps= 12 q=44.0 size=     256KiB time=00:00:02.55 bitrate= 822.4kbits/s speed=0.199x elapsed=0:00:12.78    \nframe=  160 fps= 12 q=45.0 size=     256KiB time=00:00:02.66 bitrate= 786.4kbits/s speed= 0.2x elapsed=0:00:13.31    \nframe=  168 fps= 12 q=44.0 size=     256KiB time=00:00:02.80 bitrate= 749.0kbits/s speed=0.202x elapsed=0:00:13.85    \nframe=  175 fps= 12 q=56.0 size=     256KiB time=00:00:02.91 bitrate= 719.0kbits/s speed=0.203x elapsed=0:00:14.39    \nframe=  183 fps= 12 q=58.0 size=     256KiB time=00:00:03.05 bitrate= 687.6kbits/s speed=0.204x elapsed=0:00:14.94    \nframe=  189 fps= 12 q=55.0 size=     256KiB time=00:00:03.15 bitrate= 665.8kbits/s speed=0.204x elapsed=0:00:15.46    \nframe=  197 fps= 12 q=63.0 size=     256KiB time=00:00:03.28 bitrate= 638.7kbits/s speed=0.205x elapsed=0:00:15.99    \nframe=  203 fps= 12 q=51.0 size=     256KiB time=00:00:03.38 bitrate= 619.8kbits/s speed=0.205x elapsed=0:00:16.52    \nframe=  211 fps= 12 q=48.0 size=     256KiB time=00:00:03.51 bitrate= 596.3kbits/s speed=0.206x elapsed=0:00:17.05    \nframe=  217 fps= 12 q=52.0 size=     256KiB time=00:00:03.61 bitrate= 579.9kbits/s speed=0.206x elapsed=0:00:17.59    \nframe=  225 fps= 12 q=51.0 size=     256KiB time=00:00:03.75 bitrate= 559.2kbits/s speed=0.207x elapsed=0:00:18.13    \nframe=  233 fps= 12 q=46.0 size=     256KiB time=00:00:03.88 bitrate= 540.0kbits/s speed=0.208x elapsed=0:00:18.67    \nframe=  240 fps= 12 q=45.0 size=     256KiB time=00:00:04.00 bitrate= 524.3kbits/s speed=0.208x elapsed=0:00:19.20    \nframe=  247 fps= 13 q=48.0 size=     256KiB time=00:00:04.11 bitrate= 509.4kbits/s speed=0.208x elapsed=0:00:19.74    \nframe=  255 fps= 13 q=53.0 size=     256KiB time=00:00:04.25 bitrate= 493.4kbits/s speed=0.21x elapsed=0:00:20.25    \nframe=  263 fps= 13 q=45.0 size=     512KiB time=00:00:04.38 bitrate= 956.9kbits/s speed=0.211x elapsed=0:00:20.79    \nframe=  271 fps= 13 q=49.0 size=     512KiB time=00:00:04.51 bitrate= 928.6kbits/s speed=0.212x elapsed=0:00:21.31    \nframe=  276 fps= 13 q=53.0 size=     512KiB time=00:00:04.60 bitrate= 911.8kbits/s speed=0.211x elapsed=0:00:21.84    \nframe=  276 fps= 12 q=53.0 size=     512KiB time=00:00:04.60 bitrate= 911.8kbits/s speed=0.206x elapsed=0:00:22.37    \nframe=  276 fps= 12 q=53.0 size=     512KiB time=00:00:04.60 bitrate= 911.8kbits/s speed=0.201x elapsed=0:00:22.88    \n[out#0/webm @ 00000195af891580] video:772KiB audio:0KiB subtitle:0KiB other streams:0KiB global headers:0KiB muxing overhead: 0.358185%\nframe=  300 fps= 13 q=52.0 Lsize=     775KiB time=00:00:05.00 bitrate=1269.1kbits/s speed=0.214x elapsed=0:00:23.37    \n",
  "seconds": 23.62281608581543,
  "probe_out": {}
}